# xmcd
#
# Track frame offsets: 
#        150
#        9350
#        19204
#        29234
#        43307
#        53372
#        67503
#        78100
#        89408
#        98406
#        106448
#        117553
#        131261
#        142304
#        154405
#        172158
#        183201
#        192353
#        203396
#        216008
#        225687
#        234261
#        246238
#        263897
#        278353
#        290535
#        301631
#        319444
#
# Disc length: 4414 seconds
#
# Revision: 0
# Processed by: cddbd v1.5.2PL0 Copyright (c) Steve Scherf et al.
# Submitted via: ExactAudioCopy v0.95b3
#
DISCID=7f113c1c
DTITLE=Count Five  - Psychotic Reaction (1966)(2007 Repertoire Rem.)  
DTITLE=FLAC
DYEAR=1900
DGENRE=
TTITLE0=Double-Ducker Bus
TTITLE1=Pretty Big Mouth
TTITLE2=The World
TTITLE3=My Generation
TTITLE4=She's Fine
TTITLE5=Psychotic Reaction
TTITLE6=Peace Of Mind
TTITLE7=They're Gonna Get You
TTITLE8=The Morning After
TTITLE9=Can't Get Your Loving
TTITLE10=Out In The Streets
TTITLE11=You Must Believe Me
TTITLE12=Teeny Bopper Teeny Bopper
TTITLE13=Merry-Go-Round
TTITLE14=Contrast
TTITLE15=Declaration Of Independance
TTITLE16=Revelation In Slow Motion
TTITLE17=Mailman
TTITLE18=Move It Up
TTITLE19=So Much
TTITLE20=Enchanted Flowers
TTITLE21=People Hear What I Say
TTITLE22=Contrast
TTITLE23=Psychoic Reaction
TTITLE24=They're Gonna Get You
TTITLE25=Teeny Bopper, Teeny Bopper
TTITLE26=Contrast
TTITLE27=Mailman
EXTD=
EXTT0=
EXTT1=
EXTT2=
EXTT3=
EXTT4=
EXTT5=
EXTT6=
EXTT7=
EXTT8=
EXTT9=
EXTT10=
EXTT11=
EXTT12=
EXTT13=
EXTT14=
EXTT15=
EXTT16=
EXTT17=
EXTT18=
EXTT19=
EXTT20=
EXTT21=
EXTT22=
EXTT23=
EXTT24=
EXTT25=
EXTT26=
EXTT27=
PLAYORDER=
